<?xml version="1.0" encoding="utf-8"?>
<!-- Generator: Adobe Illustrator 28.0.0, SVG Export Plug-In . SVG Version: 6.00 Build 0)  -->
<svg version="1.1" id="shield" xmlns="http://www.w3.org/2000/svg" xmlns:xlink="http://www.w3.org/1999/xlink" x="0px" y="0px"
	 viewBox="0 0 32 32" style="enable-background:new 0 0 32 32;" xml:space="preserve">
<style type="text/css">
	.st0{fill:#FE0000;}
</style>
<path class="st0" d="M16,0c0,0-4.2,5-14,5v9.9c0,5.5,2.8,10.8,7.7,14.2c1.8,1.2,3.8,2.2,6.3,2.9c2.4-0.6,4.5-1.7,6.3-2.9
	c5-3.4,7.7-8.7,7.7-14.2V5C20.2,5,16,0,16,0z M28,14.9c0,0.2,0,0.1,0,1.1H17V3.4c2.2,1.4,5.8,3.2,11,3.5V14.9z M4,6.9
	c5.2-0.4,8.8-2.1,11-3.5V16H4c0-1,0-0.9,0-1.1V6.9z M4.2,18H15v11.6c-1.4-0.5-2.8-1-4.1-1.9C7.3,25.3,4.9,21,4.2,18z M21.1,27.7
	c-1.3,0.9-2.7,1.3-4.1,1.9V18h10.8C27.1,21,24.7,25.3,21.1,27.7z"/>
</svg>
