<?xml version="1.0" encoding="utf-8"?>
<!-- Generator: Adobe Illustrator 28.0.0, SVG Export Plug-In . SVG Version: 6.00 Build 0)  -->
<svg version="1.1" id="Слой_1" xmlns="http://www.w3.org/2000/svg" xmlns:xlink="http://www.w3.org/1999/xlink" x="0px" y="0px"
	 viewBox="0 0 40.1 37.8" style="enable-background:new 0 0 40.1 37.8;" xml:space="preserve">
<style type="text/css">
	.st0{fill:#313132;}
</style>
<path class="st0" d="M32.3,4.2H9.1c-1,0-1.9,0.4-2.5,1.1C5.9,5.9,5.5,6.8,5.5,7.8V31c0,1,0.4,1.9,1.1,2.5c0.7,0.7,1.5,1.1,2.5,1.1
	h23.2c1,0,1.9-0.4,2.5-1.1c0.7-0.7,1.1-1.5,1.1-2.5V7.8c0-1-0.4-1.9-1.1-2.5C34.2,4.6,33.3,4.2,32.3,4.2 M9.1,2.1h23.2
	c1.6,0,3,0.6,4,1.7c1,1,1.7,2.4,1.7,4V31c0,1.6-0.6,3-1.7,4c-1,1-2.4,1.7-4,1.7H9.1c-1.6,0-3-0.6-4-1.7c-1-1-1.7-2.4-1.7-4V7.8
	c0-1.6,0.6-3,1.7-4C6.1,2.8,7.6,2.1,9.1,2.1"/>
<path class="st0" d="M20,15.5h0.1c1.2,0,2.3,0,3.5,0c0.4,0,0.8,0.3,0.9,0.7c0.1,0.6-0.3,1.1-0.9,1.1c-0.3,0-0.6,0-0.9,0
	c-0.8,0-1.7,0-2.5,0h-0.1c0,0.4,0,0.7,0,1.1h0.1c1.5,0,3.1,0,4.6,0c0.5,0,0.8,0.2,1.1,0.6c1.2,2,2.3,3.9,3.5,5.9
	c0.2,0.4,0.3,0.8,0.1,1.2c-0.3,0.6-1.1,0.8-1.7,0.4c-0.1-0.1-0.2-0.2-0.3-0.3c-0.9-1.5-1.8-3-2.7-4.5c-0.1-0.1-0.1-0.1-0.2-0.1
	c-2.1,0-4.1,0-6.2,0c-0.8,0-1.6-0.5-1.9-1.2c-0.1-0.2-0.1-0.5-0.1-0.7c-0.1-0.8-0.1-1.6-0.1-2.3c-0.1-1-0.1-2-0.2-3.1
	c0-0.4,0-0.8,0.1-1.2c0.3-0.8,1.1-1.3,1.9-1.2c0.9,0.1,1.6,0.7,1.7,1.6c0.1,0.4,0.1,0.7,0.1,1.1C20,14.7,20,15.1,20,15.5"/>
<path class="st0" d="M24.8,23.6c0.2,0.3,0.3,0.5,0.5,0.8s0.3,0.5,0.5,0.8c0,0.1,0,0.1,0,0.2c-1.1,2.1-2.7,3.5-5.1,4
	c-2.4,0.5-4.6-0.1-6.5-1.7c-1.3-1.1-2.1-2.6-2.4-4.3c-0.4-2.4,0.3-4.5,1.9-6.3c0.4-0.4,0.8-0.7,1.2-1c0,0,0.1,0,0.1-0.1
	c0,0.3,0,0.6,0.1,0.9c0,0.3,0,0.6,0,0.9c0,0,0,0.1-0.1,0.1c-0.9,0.9-1.5,2-1.7,3.3c-0.3,2,0.3,3.7,1.7,5.2c0.9,0.9,1.9,1.4,3.2,1.5
	c1.9,0.2,3.5-0.3,4.9-1.6C23.9,25.7,24.5,24.8,24.8,23.6C24.8,23.7,24.8,23.7,24.8,23.6"/>
<path class="st0" d="M15.9,8.9c0-1.1,0.9-2,2-2c1.1,0,2,0.9,2,1.9c0,1.1-0.9,2-2,2C16.8,10.9,15.9,10,15.9,8.9"/>
</svg>
