<?xml version="1.0" encoding="utf-8"?>
<!-- Generator: Adobe Illustrator 28.0.0, SVG Export Plug-In . SVG Version: 6.00 Build 0)  -->
<svg version="1.1" id="Layer_1" xmlns="http://www.w3.org/2000/svg" xmlns:xlink="http://www.w3.org/1999/xlink" x="0px" y="0px"
	 viewBox="0 0 19.8 19.8" style="enable-background:new 0 0 19.8 19.8;" xml:space="preserve">
<style type="text/css">
	.st0{fill:#313132;}
	.st1{fill:#313131;}
</style>
<g>
	<path class="st1" d="M16.9,1.9h-14c-0.6,0-1,0.4-1,1v14c0,0.6,0.4,1,1,1h14c0.6,0,1-0.4,1-1v-14C17.9,2.4,17.5,1.9,16.9,1.9z
		 M15.9,15.9h-12v-12h12V15.9z"/>
	<rect x="5.9" y="5.9" class="st1" width="8" height="2"/>
	<rect x="5.9" y="8.9" class="st1" width="2" height="2"/>
	<rect x="8.9" y="8.9" class="st1" width="2" height="2"/>
	<rect x="11.9" y="8.9" class="st1" width="2" height="2"/>
	<rect x="5.9" y="11.9" class="st1" width="2" height="2"/>
	<rect x="8.9" y="11.9" class="st1" width="2" height="2"/>
	<rect x="11.9" y="11.9" class="st1" width="2" height="2"/>
</g>
</svg>
