<?xml version="1.0" encoding="utf-8"?>
<!-- Generator: Adobe Illustrator 28.0.0, SVG Export Plug-In . SVG Version: 6.00 Build 0)  -->
<svg version="1.1" id="right" xmlns="http://www.w3.org/2000/svg" xmlns:xlink="http://www.w3.org/1999/xlink" x="0px" y="0px"
	 viewBox="0 0 32.6 32.6" style="enable-background:new 0 0 32.6 32.6;" xml:space="preserve">
<style type="text/css">
	.st0{fill:#FE0000;}
	.st1{fill:none;stroke:#FE0000;stroke-width:1.7008;stroke-miterlimit:10;}
	.st2{fill:none;stroke:#FE0000;stroke-width:1.7008;stroke-linecap:round;stroke-linejoin:round;stroke-miterlimit:10;}
</style>
<path class="st0" d="M16.3,0.6c-8.8,0-16,7.2-16,16s7.2,16,16,16s16-7.2,16-16S25.1,0.6,16.3,0.6z M16.3,30.6c-7.7,0-14-6.3-14-14
	s6.3-14,14-14s14,6.3,14,14S24,30.6,16.3,30.6z"/>
<g>
	<path class="st1" d="M21.1,23.7h-9.6c-0.7,0-1.3-0.5-1.5-1.2l-1.9-6.4c-0.1-0.2,0.1-0.4,0.3-0.4h15.7c0.2,0,0.4,0.2,0.3,0.4
		l-1.9,6.5C22.4,23.2,21.8,23.7,21.1,23.7z"/>
	<line class="st2" x1="14.5" y1="8.9" x2="8.2" y2="15.8"/>
	<line class="st2" x1="17.8" y1="8.9" x2="24.4" y2="15.8"/>
</g>
</svg>
