<?xml version="1.0" encoding="utf-8"?>
<!-- Generator: Adobe Illustrator 28.0.0, SVG Export Plug-In . SVG Version: 6.00 Build 0)  -->
<svg version="1.1" id="Layer" xmlns="http://www.w3.org/2000/svg" xmlns:xlink="http://www.w3.org/1999/xlink" x="0px" y="0px"
	 viewBox="0 0 24 24" style="enable-background:new 0 0 24 24;" xml:space="preserve">
<style type="text/css">
	.st0{fill:#7C0000;}
</style>
<path class="st0" d="M20.4,7.5C20.4,7.4,20.4,7.4,20.4,7.5c-0.1-0.1-0.1-0.1-0.1-0.2c0,0,0,0,0,0L12.4,2c-0.2-0.1-0.4-0.1-0.5,0
	L3.8,7.2c0,0,0,0,0,0c0,0-0.1,0.1-0.1,0.1c0,0,0,0,0,0.1c0,0.1-0.1,0.1-0.1,0.2v9.2c0,0.2,0.1,0.3,0.2,0.4l7.9,4.7c0,0,0,0,0,0
	c0.1,0,0.1,0.1,0.2,0.1s0.2,0,0.2-0.1c0,0,0,0,0,0l7.9-4.7c0.2-0.1,0.2-0.3,0.2-0.4V7.7C20.4,7.6,20.4,7.5,20.4,7.5z M12.2,3L19,7.6
	l-7,4.2L5,7.7L12.2,3z M4.6,8.5l7,4.2c0,0.1-0.1,0.1-0.1,0.2v7.7l-7-4.1V8.5z M12.5,20.7V13c0-0.1,0-0.2-0.1-0.2l7-4.2v8.1
	L12.5,20.7z"/>
</svg>
