<?xml version="1.0" encoding="utf-8"?>
<!-- Generator: Adobe Illustrator 28.0.0, SVG Export Plug-In . SVG Version: 6.00 Build 0)  -->
<svg version="1.1" id="check" xmlns="http://www.w3.org/2000/svg" xmlns:xlink="http://www.w3.org/1999/xlink" x="0px" y="0px"
	 viewBox="0 0 32 32" style="enable-background:new 0 0 32 32;" xml:space="preserve">
<style type="text/css">
	.st0{fill:#E52420;}
</style>
<path class="st0" d="M26.4,31.8H5.6c-3,0-5.4-2.4-5.4-5.4V5.6c0-3,2.4-5.4,5.4-5.4h20.9c3,0,5.4,2.4,5.4,5.4v20.9
	C31.8,29.4,29.4,31.8,26.4,31.8z M5.6,1.9c-2,0-3.6,1.6-3.6,3.6v20.9c0,2,1.6,3.6,3.6,3.6h20.9c2,0,3.6-1.6,3.6-3.6V5.6
	c0-2-1.6-3.6-3.6-3.6H5.6z"/>
</svg>
