<?xml version="1.0" encoding="utf-8"?>
<!-- Generator: Adobe Illustrator 28.0.0, SVG Export Plug-In . SVG Version: 6.00 Build 0)  -->
<svg version="1.1" id="paper" xmlns="http://www.w3.org/2000/svg" xmlns:xlink="http://www.w3.org/1999/xlink" x="0px" y="0px"
	 viewBox="0 0 32.2 34.4" style="enable-background:new 0 0 32.2 34.4;" xml:space="preserve">
<style type="text/css">
	.st0{fill:#FE0000;}
</style>
<path class="st0" d="M32.1,11.9c-0.2-0.5-0.7-0.8-1.1-0.8h-2.9V6.4c0-2.7-2.2-5-5-5h-14c-2.8,0-5,2.2-5,5v4.7H1.2c-0.6,0-1,0.5-1,1
	v16.6c0,0.6,0.5,1,1,1h1.6v2.2c0,0.6,0.5,1,1,1H7c0.6,0,1-0.5,1-1v-2.2h16.1v2.2c0,0.6,0.5,1,1,1h3.3c0.6,0,1-0.5,1-1v-2.2h1.6
	c0.6,0,1-0.5,1-1V12L32.1,11.9z M27.4,29.6v1.2h-1.3v-1.2H27.4z M6,29.6v1.2H4.8v-1.2H6z M6.1,19.4V6.4c0-1.6,1.3-3,3-3h14
	c1.7,0,3,1.3,3,3v12.9H6.1z M6.1,23.9v-2.5h20v2.5H6.1z M5.1,25.9h22c0.6,0,1-0.5,1-1V13.1H30v14.6H2.2V13.1h1.9v11.8
	C4.1,25.4,4.5,25.9,5.1,25.9z"/>
</svg>
