<?xml version="1.0" encoding="utf-8"?>
<!-- Generator: Adobe Illustrator 28.0.0, SVG Export Plug-In . SVG Version: 6.00 Build 0)  -->
<svg version="1.1" id="Graphic_Elements" xmlns="http://www.w3.org/2000/svg" xmlns:xlink="http://www.w3.org/1999/xlink" x="0px"
	 y="0px" viewBox="0 0 101 101" style="enable-background:new 0 0 101 101;" xml:space="preserve">
<style type="text/css">
	.st0{fill-rule:evenodd;clip-rule:evenodd;fill:#FE0000;}
	.st1{fill:#B5B4B4;}
	.st2{fill:#FE0000;}
</style>
<g>
	<g>
		<path class="st2" d="M56.7,72.8c-5.9-0.5-8.4-3.4-13-6.2C41.2,79.9,38,92.8,28.8,99.5C26,79.2,33,64.1,36.3,47.9
			c-5.6-9.4,0.7-28.2,12.4-23.6c14.5,5.7-12.5,34.8,5.6,38.5C73.2,66.6,80.9,30,69.2,18.1C52.2,1,19.9,17.8,23.8,42.3
			c1,6,7.2,7.8,2.5,16.1c-10.8-2.4-14.1-10.9-13.7-22.3C13.3,17.5,29.4,4.4,45.6,2.6C66,0.3,85.1,10.1,87.8,29.3
			C90.8,51,78.6,74.4,56.7,72.8L56.7,72.8z"/>
	</g>
</g>
</svg>
