<?xml version="1.0" encoding="utf-8"?>
<!-- Generator: Adobe Illustrator 28.0.0, SVG Export Plug-In . SVG Version: 6.00 Build 0)  -->
<svg version="1.1" id="Graphic_Elements" xmlns="http://www.w3.org/2000/svg" xmlns:xlink="http://www.w3.org/1999/xlink" x="0px"
	 y="0px" viewBox="0 0 101 101" style="enable-background:new 0 0 101 101;" xml:space="preserve">
<style type="text/css">
	.st0{fill-rule:evenodd;clip-rule:evenodd;fill:#FE0000;}
	.st1{fill:#B5B4B4;}
</style>
<g>
	<g id="WA_Logo_10_">
		<g>
			<path class="st0" d="M-137.9,12.6C-146,4.5-156.8,0-168.2,0C-191.8,0-211,19.2-211,42.8c0,7.5,2,14.9,5.7,21.4l-6.1,22.2l22.7-6
				c6.3,3.4,13.3,5.2,20.5,5.2h0c0,0,0,0,0,0c23.6,0,42.8-19.2,42.8-42.8C-125.4,31.4-129.8,20.6-137.9,12.6z M-168.2,78.4
				L-168.2,78.4c-6.4,0-12.7-1.7-18.1-5l-1.3-0.8l-13.5,3.5l3.6-13.1l-0.8-1.3c-3.6-5.7-5.4-12.2-5.4-18.9c0-19.6,16-35.6,35.6-35.6
				c9.5,0,18.4,3.7,25.2,10.4c6.7,6.7,10.4,15.7,10.4,25.2C-132.6,62.5-148.6,78.4-168.2,78.4z M-148.7,51.8
				c-1.1-0.5-6.3-3.1-7.3-3.5c-1-0.4-1.7-0.5-2.4,0.5c-0.7,1.1-2.8,3.5-3.4,4.2c-0.6,0.7-1.2,0.8-2.3,0.3c-1.1-0.5-4.5-1.7-8.6-5.3
				c-3.2-2.8-5.3-6.3-6-7.4c-0.6-1.1-0.1-1.6,0.5-2.2c0.5-0.5,1.1-1.2,1.6-1.9c0.5-0.6,0.7-1.1,1.1-1.8c0.4-0.7,0.2-1.3-0.1-1.9
				c-0.3-0.5-2.4-5.8-3.3-7.9c-0.9-2.1-1.8-1.8-2.4-1.8c-0.6,0-1.3,0-2.1,0s-1.9,0.3-2.9,1.3c-1,1.1-3.7,3.7-3.7,8.9
				c0,5.3,3.8,10.4,4.4,11.1c0.5,0.7,7.5,11.5,18.3,16.2c2.6,1.1,4.5,1.8,6.1,2.3c2.6,0.8,4.9,0.7,6.7,0.4c2.1-0.3,6.3-2.6,7.2-5.1
				c0.9-2.5,0.9-4.6,0.6-5.1C-146.9,52.6-147.6,52.3-148.7,51.8z"/>
		</g>
	</g>
</g>
<path class="st1" d="M-22.7,18.9c-0.3-1-0.7-1.2-1.3-1.4c-1.3-0.5-3.6,0.3-3.6,0.3s-80.1,28.8-84.6,32c-1,0.7-1.3,1.1-1.5,1.6
	c-0.8,2.3,1.7,3.3,1.7,3.3l20.6,6.7c0,0,0.8,0.1,1-0.1c4.7-3,47.2-29.8,49.7-30.7c0.4-0.1,0.7,0,0.6,0.3C-41.1,34.1-78,67-78,67
	s-0.1,0.2-0.2,0.4l0,0l-1.9,20.5c0,0-0.8,6.3,5.5,0c4.4-4.4,8.7-8.1,10.8-9.9c7.1,4.9,14.7,10.3,18,13.2c1.7,1.4,3,1.7,4.2,1.6
	c3.1-0.1,4-3.6,4-3.6s14.6-58.7,15.1-66.6c0-0.8,0.1-1.3,0.1-1.8C-22.5,20-22.5,19.2-22.7,18.9z"/>
<path class="st0" d="M-183,115.9c-1.9,0-3.4,1.6-3.3,3.5c1.9,36.3,20.6,58.1,52.9,58.7c0.8,0,1.6-0.3,2.2-0.8l0,0
	c0.6-0.6,1-1.3,1-2.2l0-15.3c0-2.1,2-3.7,4.1-3.2c9.8,2.4,17.3,9.9,21,19.5c0.5,1.2,1.7,2.1,3,2.1l10.8,0c2.3,0,3.9-2.3,3.1-4.5
	c-4.6-12.1-12.8-19.9-19.7-24.2c-1.9-1.2-2-3.9-0.2-5.3c6.4-5,13.5-13.3,16.6-23.9c0.6-2.1-1-4.2-3.2-4.2h-9.5
	c-1.4,0-2.6,0.9-3.1,2.1c-3.4,9.6-10.7,18.2-18.5,21.3c-2.1,0.9-4.5-0.8-4.5-3.1v-17.1c0-1.8-1.5-3.3-3.3-3.3h-9.5
	c-1.8,0-3.3,1.5-3.3,3.3l0,35c0,2.5-2.7,4.1-4.9,2.9c-8.4-4.6-17-16.1-18.1-38c-0.1-1.7-1.5-3.1-3.3-3.1L-183,115.9z"/>
<g>
	<g>
		<path class="st1" d="M56.7,72.8c-5.9-0.5-8.4-3.4-13-6.2C41.2,79.9,38,92.8,28.8,99.5C26,79.2,33,64.1,36.3,47.9
			c-5.6-9.4,0.7-28.2,12.4-23.6c14.5,5.7-12.5,34.8,5.6,38.5C73.2,66.6,80.9,30,69.2,18.1C52.2,1,19.9,17.8,23.8,42.3
			c1,6,7.2,7.8,2.5,16.1c-10.8-2.4-14.1-10.9-13.7-22.3C13.3,17.5,29.4,4.4,45.6,2.6C66,0.3,85.1,10.1,87.8,29.3
			C90.8,51,78.6,74.4,56.7,72.8L56.7,72.8z"/>
	</g>
</g>
</svg>
