<?xml version="1.0" encoding="utf-8"?>
<!-- Generator: Adobe Illustrator 28.0.0, SVG Export Plug-In . SVG Version: 6.00 Build 0)  -->
<svg version="1.1" id="Layer_1" xmlns="http://www.w3.org/2000/svg" xmlns:xlink="http://www.w3.org/1999/xlink" x="0px" y="0px"
	 viewBox="0 0 19.8 19.8" style="enable-background:new 0 0 19.8 19.8;" xml:space="preserve">
<style type="text/css">
	.st0{fill:#313132;}
	.st1{fill:#313131;}
</style>
<g>
	<path id="XMLID_6329_" class="st0" d="M12,8c1.2-1.2,1.2-3.1,0-4.2c-1.2-1.2-3.1-1.2-4.2,0C6.6,5,6.6,6.9,7.8,8
		C9,9.2,10.9,9.2,12,8z"/>
	<path id="XMLID_6328_" class="st0" d="M14.9,11.9c0,0,1,1,1,3v2h2v-2C17.9,13.3,16.6,11.9,14.9,11.9z"/>
	<path id="XMLID_6327_" class="st0" d="M1.9,14.9v2h2v-2c0-2,1-3,1-3C3.3,11.9,1.9,13.3,1.9,14.9z"/>
	<circle id="XMLID_6326_" class="st0" cx="15.9" cy="8.9" r="2"/>
	<circle id="XMLID_6325_" class="st0" cx="3.9" cy="8.9" r="2"/>
	<path id="XMLID_6324_" class="st0" d="M10,10.9L10,10.9c-2.3,0-4,1.8-4,4v2h8v-2C13.9,12.7,12.1,10.9,10,10.9z"/>
</g>
</svg>
