<?xml version="1.0" encoding="utf-8"?>
<!-- Generator: Adobe Illustrator 28.0.0, SVG Export Plug-In . SVG Version: 6.00 Build 0)  -->
<svg version="1.1" id="Слой_1" xmlns="http://www.w3.org/2000/svg" xmlns:xlink="http://www.w3.org/1999/xlink" x="0px" y="0px"
	 viewBox="0 0 40.1 37.8" style="enable-background:new 0 0 40.1 37.8;" xml:space="preserve">
<style type="text/css">
	.st0{fill:#313132;}
	.st1{fill:#3D3C3B;}
</style>
<g>
	<path class="st1" d="M31.6,4.2H8.5c-1,0-1.9,0.4-2.5,1.1C5.3,5.9,4.9,6.8,4.9,7.8V31c0,1,0.4,1.9,1.1,2.5c0.7,0.7,1.5,1.1,2.5,1.1
		h23.2c1,0,1.9-0.4,2.5-1.1c0.7-0.7,1.1-1.5,1.1-2.5V7.8c0-1-0.4-1.9-1.1-2.5C33.5,4.6,32.6,4.2,31.6,4.2 M8.5,2.1h23.2
		c1.6,0,3,0.6,4,1.7c1,1,1.7,2.4,1.7,4V31c0,1.6-0.6,3-1.7,4c-1,1-2.4,1.7-4,1.7H8.5c-1.6,0-3-0.6-4-1.7c-1-1-1.7-2.4-1.7-4V7.8
		c0-1.6,0.6-3,1.7-4C5.5,2.8,6.9,2.1,8.5,2.1"/>
	<path class="st1" d="M13.9,10.7c0,1.1-0.9,2-2,2c-1.1,0-2-0.9-2-2c0-1.1,0.9-2,2-2C13,8.7,13.9,9.6,13.9,10.7"/>
	<path class="st1" d="M26.3,29.1c-0.3,0.1-0.6,0.1-1,0.1c-0.3,0-0.8,0.1-1-0.1c-0.3-0.3-0.2-0.8-0.2-1.1c0-0.2-0.1-0.5-0.1-0.7
		c-0.2-0.7-0.6-1.3-1.2-1.6C22,25.1,21,25,20,24.9c-1,0-2,0-3,0.3c-1.5,0.5-2.5,1.8-2.3,3.4c0,0.1,0,0.2,0,0.3
		C14.6,29,14.4,29,14.2,29c-0.3,0-0.6,0.1-0.9,0c-0.3-0.1-0.3-1.1-0.4-1.4c-0.3-1.2-0.5-2.4-0.8-3.5c-0.2-0.6-2-5.9-2.5-7
		c-0.3-0.7-0.6-1.4-1-2.2c-0.3-0.7-0.7-1.3-0.6-2.1c0,0,0-0.1,0.1-0.1c0.2-0.4,0.6-0.5,1.1-0.5c0.4,0,1.8,2.4,2.1,2.9
		c0.3,0.5,0.7,1.1,1,1.6c0.8,1.3,1.6,2.6,2.4,4c0,0.1,0.1,0.2,0.2,0.2c0.3,0,0.7-0.1,1-0.1c2.6-0.3,5.2-0.5,7.8-0.7
		c0.8-0.1,1.5-0.2,2.2,0.1c0.8,0.4,0.9,1.2,1.1,2c0.1,0.5,0,1.1-0.1,1.5c-0.1,1.6-0.4,3.2-0.5,4.7C26.3,28.6,26.4,28.7,26.3,29.1"/>
	<path class="st1" d="M12.3,15.6c-0.1-0.2-0.3-0.4-0.4-0.7c0-0.3-0.1-0.5,0-0.8c0-0.2,0.1-0.5,0.2-0.7c0.1-0.1,0.2-0.2,0.3-0.3
		c0.2-0.1,0.3-0.2,0.5-0.3c0.1,0,0.2-0.1,0.2-0.1c0.8-0.2,1.5,0.2,2,0.9c0.5,0.8,2.4,3.5,2.8,4.1C18,17.9,18,18,18.2,18
		c0.2,0,0.5,0,0.7-0.1c1.3-0.1,2.7-0.2,4-0.2c0.2,0,0.5,0,0.6,0.1c0.2,0.2,0.2,0.5,0.2,0.7c0,0,0,0.1,0,0.1c0,0.2,0,0.4-0.1,0.5
		c-0.1,0.1-0.1,0.1-0.2,0.2c-0.2,0.1-0.5,0-0.7,0.1c-0.2,0-0.5,0-0.7,0.1c-0.9,0.1-1.8,0.1-2.7,0.2c-0.4,0-0.9,0-1.3,0.1
		c-0.2,0-0.5,0-0.7,0.1c-0.6,0-1.2,0.1-1.8,0.1c-0.1,0-0.2,0-0.3,0c0,0-0.2-0.3-0.3-0.4c-0.9-1.2-1.7-2.5-2.6-3.7
		C12.3,15.7,12.3,15.7,12.3,15.6"/>
	<path class="st1" d="M28.1,24.9c-0.2-0.2-0.3-0.3-0.3-0.6c0-0.3,0-2.7,0.1-2.8c0.3,0.1,1.1,1.1,1.2,1.4c0.2,0.3,1.6,2.4,1.7,2.5
		c0.2,0.2,1.1,1.5,1.2,1.7c0.2,0.3,0.4,0.6,0.1,0.9c-0.2,0.2-0.3,0.3-0.5,0.3c-0.3,0-0.7-0.2-0.9-0.4C30.6,27.6,28.4,25.1,28.1,24.9
		"/>
</g>
</svg>
