<?xml version="1.0" encoding="utf-8"?>
<!-- Generator: Adobe Illustrator 28.0.0, SVG Export Plug-In . SVG Version: 6.00 Build 0)  -->
<svg version="1.1" id="edit" xmlns="http://www.w3.org/2000/svg" xmlns:xlink="http://www.w3.org/1999/xlink" x="0px" y="0px"
	 viewBox="0 0 32 32" style="enable-background:new 0 0 32 32;" xml:space="preserve">
<style type="text/css">
	.st0{fill:#313131;}
</style>
<g>
	<polygon class="st0" points="30,30 2,30 2,2 18,2 18,0 0,0 0,32 32,32 32,14 30,14 	"/>
	<path class="st0" d="M9.5,18.1l-0.3,1l0,0L8,24l4.8-1.3l0.1,0l1.1-0.3l0.7-0.7L31.1,5.2c1.2-1.2,1.2-3.1,0-4.3
		c-1.2-1.2-3.1-1.2-4.3,0L10.3,17.4L9.5,18.1z M28.2,2.3c0.4-0.4,1-0.4,1.4,0c0.4,0.4,0.4,1,0,1.4l-1.4,1.4l-1.4-1.4L28.2,2.3z
		 M11.3,19.6L11.3,19.6l0.1-0.4l14-14l1.4,1.4L12.9,20.6l-0.5,0.1l-0.2,0l-1.3,0.4L11.3,19.6z"/>
</g>
</svg>
