<?xml version="1.0" encoding="utf-8"?>
<!-- Generator: Adobe Illustrator 28.0.0, SVG Export Plug-In . SVG Version: 6.00 Build 0)  -->
<svg version="1.1" id="Слой_1" xmlns="http://www.w3.org/2000/svg" xmlns:xlink="http://www.w3.org/1999/xlink" x="0px" y="0px"
	 viewBox="0 0 40.1 37.8" style="enable-background:new 0 0 40.1 37.8;" xml:space="preserve">
<style type="text/css">
	.st0{fill:#313132;}
</style>
<g>
	<path class="st0" d="M31.6,3.9H8.5c-1,0-1.9,0.4-2.5,1.1C5.3,5.6,4.9,6.5,4.9,7.5v23.2c0,1,0.4,1.9,1.1,2.5
		c0.7,0.7,1.5,1.1,2.5,1.1h23.2c1,0,1.9-0.4,2.5-1.1c0.7-0.7,1.1-1.5,1.1-2.5V7.5c0-1-0.4-1.9-1.1-2.5C33.5,4.3,32.6,3.9,31.6,3.9
		 M8.5,1.8h23.2c1.6,0,3,0.6,4,1.7c1,1,1.7,2.4,1.7,4v23.2c0,1.6-0.6,3-1.7,4c-1,1-2.4,1.7-4,1.7H8.5c-1.6,0-3-0.6-4-1.7
		c-1-1-1.7-2.4-1.7-4V7.5c0-1.6,0.6-3,1.7-4C5.5,2.4,6.9,1.8,8.5,1.8"/>
	<g>
		<path class="st0" d="M19.9,13.1l-0.1,0c-0.3-0.1-0.7,0.1-0.8,0.4l-0.5,2l1.3,0.4l0.6-2C20.4,13.5,20.2,13.2,19.9,13.1z"/>
		<path class="st0" d="M23.5,14.1l-0.1,0c-0.3-0.1-0.7,0.1-0.8,0.4l-0.5,2l1.3,0.4l0.6-2C24,14.5,23.8,14.2,23.5,14.1z"/>
		<path class="st0" d="M22.6,10c-5.1-1.4-10.4,1.6-11.8,6.7c-0.7,2.7-0.3,5.6,1.3,7.9c0.4,0.5,1.4,1.8,2.6,2.6
			c0.1,0.1,0.2,0.1,0.3,0.1c0.4,0.1,0.8,0,1-0.4c0.3-0.4,0.2-1-0.3-1.3c-1-0.7-1.8-1.7-2-2.1c-1.3-1.9-1.6-4.2-1-6.3
			c1.1-4.1,5.4-6.5,9.4-5.3c4.1,1.1,6.5,5.4,5.3,9.4c-0.5,1.9-1.8,3.6-3.5,4.6c-0.4,0.2-1.4,0.7-2.5,0.6c-0.8-0.1-1.3-0.5-1.4-0.6
			c-0.5-0.8-0.2-2.2,0-3.2c1.6,0.3,3.2-0.7,3.7-2.3l0.6-2.2c0.1-0.3-0.1-0.5-0.3-0.6l-6.4-1.8c-0.3-0.1-0.5,0.1-0.6,0.3l-0.6,2.2
			c-0.4,1.6,0.4,3.2,1.8,3.8c-0.4,1.2-0.8,3.4,0.3,4.9l0.1,0.1c0.1,0.1,1,1.1,2.7,1.2c1.6,0.2,3-0.5,3.6-0.9
			c2.2-1.3,3.7-3.3,4.4-5.7C30.7,16.7,27.7,11.4,22.6,10z"/>
	</g>
</g>
</svg>
