<?xml version="1.0" encoding="utf-8"?>
<!-- Generator: Adobe Illustrator 28.0.0, SVG Export Plug-In . SVG Version: 6.00 Build 0)  -->
<svg version="1.1" id="Слой_1" xmlns="http://www.w3.org/2000/svg" xmlns:xlink="http://www.w3.org/1999/xlink" x="0px" y="0px"
	 viewBox="0 0 19.6 17.6" style="enable-background:new 0 0 19.6 17.6;" xml:space="preserve">
<style type="text/css">
	.st0{fill:#FE0000;}
</style>
<g>
	<path class="st0" d="M3.4,9.6V8.1h8.8c-0.3-0.4-0.6-1-1-1.7c-0.3-0.7-0.5-1.1-0.5-1.3c0-0.3,0.1-0.4,0.4-0.4c0.2,0,0.4,0.2,0.7,0.5
		c0.9,1,2.1,2,3.7,3c0.4,0.2,0.7,0.4,0.7,0.6c0,0.2-0.2,0.3-0.5,0.5c-1.2,0.7-2,1.3-2.5,1.7c-0.5,0.4-1,0.9-1.6,1.6
		c-0.2,0.2-0.3,0.3-0.5,0.3c-0.3,0-0.4-0.1-0.4-0.4c0-0.5,0.5-1.5,1.5-2.9H3.4z"/>
</g>
</svg>
