<?xml version="1.0" encoding="utf-8"?>
<!-- Generator: Adobe Illustrator 28.0.0, SVG Export Plug-In . SVG Version: 6.00 Build 0)  -->
<svg version="1.1" id="Graphic_Elements" xmlns="http://www.w3.org/2000/svg" xmlns:xlink="http://www.w3.org/1999/xlink" x="0px"
	 y="0px" viewBox="0 0 101 101" style="enable-background:new 0 0 101 101;" xml:space="preserve">
<style type="text/css">
	.st0{fill-rule:evenodd;clip-rule:evenodd;fill:#FE0000;}
	.st1{fill:#FE0000;}
	.st2{fill-rule:evenodd;clip-rule:evenodd;fill:#EBEBEB;}
</style>
<path class="st1" d="M96,17.1c-0.3-1-0.7-1.2-1.3-1.4c-1.3-0.5-3.6,0.3-3.6,0.3S11,44.7,6.5,47.9c-1,0.7-1.3,1.1-1.5,1.6
	c-0.8,2.3,1.7,3.3,1.7,3.3l20.6,6.7c0,0,0.8,0.1,1-0.1c4.7-3,47.2-29.8,49.7-30.7c0.4-0.1,0.7,0,0.6,0.3c-1,3.4-37.9,36.3-37.9,36.3
	s-0.1,0.2-0.2,0.4l0,0L38.5,86c0,0-0.8,6.3,5.5,0c4.4-4.4,8.7-8.1,10.8-9.9c7.1,4.9,14.7,10.3,18,13.2c1.7,1.4,3,1.7,4.2,1.6
	c3.1-0.1,4-3.6,4-3.6s14.6-58.7,15.1-66.6c0-0.8,0.1-1.3,0.1-1.8C96.2,18.2,96.1,17.4,96,17.1z"/>
</svg>
