<?xml version="1.0" encoding="utf-8"?>
<!-- Generator: Adobe Illustrator 28.0.0, SVG Export Plug-In . SVG Version: 6.00 Build 0)  -->
<svg version="1.1" id="paper" xmlns="http://www.w3.org/2000/svg" xmlns:xlink="http://www.w3.org/1999/xlink" x="0px" y="0px"
	 viewBox="0 0 32 34.4" style="enable-background:new 0 0 32 34.4;" xml:space="preserve">
<style type="text/css">
	.st0{fill:#FE0000;}
</style>
<path class="st0" d="M27,7.9l-4.6-4.6l-2-2H19H3v32h26v-22V9.9L27,7.9z M25.6,9.3H21V4.7L25.6,9.3z M5,31.3v-28h14v8h8v20H5z"/>
<g>
	<path class="st0" d="M15.2,11.7h1.4v12.1c0.4-0.3,1-0.6,1.7-1c0.7-0.3,1.1-0.5,1.3-0.5c0.3,0,0.4,0.1,0.4,0.4
		c0,0.2-0.2,0.4-0.5,0.7c-1,0.9-2,2.1-3,3.7c-0.2,0.4-0.4,0.7-0.6,0.7c-0.2,0-0.3-0.2-0.5-0.5c-0.7-1.2-1.3-2-1.7-2.5
		c-0.4-0.5-0.9-1-1.6-1.6c-0.2-0.2-0.3-0.3-0.3-0.5c0-0.3,0.1-0.4,0.4-0.4c0.5,0,1.5,0.5,2.9,1.5V11.7z"/>
</g>
</svg>
