<?xml version="1.0" encoding="utf-8"?>
<!-- Generator: Adobe Illustrator 28.0.0, SVG Export Plug-In . SVG Version: 6.00 Build 0)  -->
<svg version="1.1" id="settings_2" xmlns="http://www.w3.org/2000/svg" xmlns:xlink="http://www.w3.org/1999/xlink" x="0px" y="0px"
	 viewBox="0 0 32 32" style="enable-background:new 0 0 32 32;" xml:space="preserve">
<style type="text/css">
	.st0{fill:#313132;}
</style>
<g>
	<path class="st0" d="M29,24h-6v2H0v2h23v2h6v-2h3v-2h-3V24z M25,28v-2h2v2H25z"/>
	<path class="st0" d="M19,13h-6v2H0v2h13v2h6v-2h13v-2H19V13z M17,17h-2v-2h2V17z"/>
	<path class="st0" d="M9,4V2H3v2H0v2h3v2h6V6h23V4H9z M5,6V4h2v2H5z"/>
</g>
</svg>
