<?xml version="1.0" encoding="utf-8"?>
<!-- Generator: Adobe Illustrator 28.0.0, SVG Export Plug-In . SVG Version: 6.00 Build 0)  -->
<svg version="1.1" id="settings_2" xmlns="http://www.w3.org/2000/svg" xmlns:xlink="http://www.w3.org/1999/xlink" x="0px" y="0px"
	 viewBox="0 0 32 32" style="enable-background:new 0 0 32 32;" xml:space="preserve">
<style type="text/css">
	.st0{fill:#313132;}
</style>
<g>
	<path class="st0" d="M9.6,28.9H6.8V11.7C6,12.3,4.9,13,3.6,13.6c-1.3,0.6-2.2,1-2.6,1c-0.5,0-0.8-0.3-0.8-0.8
		c0-0.3,0.3-0.7,0.9-1.3c2-1.7,3.9-4.1,5.8-7.2C7.4,4.4,7.8,4,8.1,4c0.3,0,0.7,0.3,1,0.9c1.4,2.3,2.5,3.9,3.2,4.8
		c0.7,0.9,1.8,2,3.2,3.1c0.4,0.3,0.6,0.6,0.6,0.9c0,0.6-0.3,0.8-0.8,0.8c-1,0-2.8-1-5.6-2.9V28.9z"/>
</g>
<g>
	<path class="st0" d="M22.4,4h2.8v17.1c0.8-0.6,1.9-1.3,3.2-1.9c1.3-0.6,2.2-1,2.6-1c0.5,0,0.8,0.3,0.8,0.8c0,0.3-0.3,0.7-0.9,1.3
		c-2,1.7-3.9,4.1-5.8,7.2c-0.5,0.8-0.9,1.3-1.2,1.3c-0.3,0-0.7-0.3-1-0.9c-1.4-2.3-2.5-3.9-3.2-4.8c-0.7-0.9-1.8-2-3.2-3.1
		c-0.4-0.3-0.6-0.6-0.6-0.9c0-0.6,0.3-0.8,0.8-0.8c1,0,2.8,1,5.6,2.9V4z"/>
</g>
</svg>
