<?xml version="1.0" encoding="utf-8"?>
<!-- Generator: Adobe Illustrator 28.0.0, SVG Export Plug-In . SVG Version: 6.00 Build 0)  -->
<svg version="1.1" id="fire" xmlns="http://www.w3.org/2000/svg" xmlns:xlink="http://www.w3.org/1999/xlink" x="0px" y="0px"
	 viewBox="0 0 32 32" style="enable-background:new 0 0 32 32;" xml:space="preserve">
<style type="text/css">
	.st0{fill:#313131;}
</style>
<path class="st0" d="M15,3.8c0.8,3.3,2.7,5.5,4.2,7.4l0.2,0.2l2.3,2.8l1.2-3.3c0.2-0.7,0.5-1.4,0.7-2.2c3.1,3.2,5.3,7.9,3.8,13.6
	c-0.5,1.9-1.6,3.7-3,4.7l0,0l0,0c-1.5,1.3-4.1,2.8-8.2,2.8c-5.3,0-8.1-2.5-9.4-4l0,0l0,0c-0.4-0.4-0.7-0.8-0.9-1.2
	c-2-3.4-2.3-6.9-0.8-9.9c0.5,0.5,1,1,1.5,1.4c0.3,0.3,0.6,0.5,0.8,0.7l4.3,4.4l-0.8-6.1C9.9,10.1,12.4,6.3,15,3.8 M16.6,0
	c-4.9,3.3-8.9,8.7-8,15.4C7.5,14.3,5.5,13,5,11C1.7,14.8,0.8,20.3,4,25.7c0.3,0.5,0.7,1.1,1.2,1.6c1.4,1.7,4.8,4.8,11,4.8
	c4.7,0,7.7-1.8,9.6-3.3c1.9-1.4,3.2-3.8,3.8-5.8c2-7.6-1.9-14.2-7.2-17.8c0,1.8-0.8,4-1.2,5.2C18.9,7.7,16.6,5,16.6,0L16.6,0z"/>
</svg>
