<?xml version="1.0" encoding="utf-8"?>
<!-- Generator: Adobe Illustrator 28.0.0, SVG Export Plug-In . SVG Version: 6.00 Build 0)  -->
<svg version="1.1" id="paper" xmlns="http://www.w3.org/2000/svg" xmlns:xlink="http://www.w3.org/1999/xlink" x="0px" y="0px"
	 viewBox="0 0 32.2 34.4" style="enable-background:new 0 0 32.2 34.4;" xml:space="preserve">
<style type="text/css">
	.st0{fill:#FE0000;}
</style>
<g>
	<path class="st0" d="M31.2,20.1c-0.5-0.1-1-0.4-1.4-0.8C29.3,18.7,29,18,29,17.2c0-0.8,0.3-1.6,0.9-2.2c0.4-0.4,0.8-0.7,1.4-0.8
		l0.9-0.3L31.9,13c-0.2-0.7-0.4-1.4-0.7-2.1c-0.3-0.7-0.6-1.3-1-1.9l-0.5-0.8l-0.8,0.5c-0.5,0.3-1,0.4-1.5,0.4
		c-0.8,0-1.6-0.3-2.1-0.9c-0.6-0.6-0.9-1.3-0.9-2.1c0-0.5,0.1-1,0.4-1.5l0.4-0.8l-0.8-0.5c-0.6-0.4-1.3-0.7-2-1
		c-0.7-0.3-1.4-0.5-2.1-0.7l-0.9-0.3l-0.3,0.9c-0.1,0.5-0.4,1-0.8,1.3c-1.1,1.1-3.1,1.1-4.3,0c-0.4-0.4-0.6-0.8-0.8-1.3l-0.3-0.9
		L12,1.4c-0.7,0.2-1.4,0.4-2.1,0.7c-0.7,0.3-1.4,0.6-2,1L7.1,3.6l0.5,0.8c0.3,0.5,0.4,1,0.4,1.5c0,0.8-0.3,1.6-0.9,2.1
		C6.5,8.7,5.7,9,4.9,9c-0.5,0-1-0.1-1.5-0.4L2.5,8.2L2,9c-0.3,0.6-0.7,1.2-1,2c-0.3,0.7-0.5,1.4-0.7,2.1l-0.2,0.9l0.9,0.3
		c0.5,0.1,1,0.4,1.3,0.8c0.6,0.6,0.9,1.4,0.9,2.2c0,0.8-0.3,1.6-0.9,2.1C2,19.7,1.6,20,1,20.1l-0.9,0.3l0.3,0.9
		C0.6,22,0.8,22.6,1,23.2l0.1,0.2c0.3,0.7,0.6,1.3,1,2l0.5,0.8l0.8-0.5c0.5-0.3,0.9-0.4,1.5-0.4c0.8,0,1.6,0.3,2.2,0.9
		c0.6,0.6,0.9,1.3,0.9,2.1c0,0.5-0.1,1.1-0.4,1.5l-0.5,0.8l0.8,0.5c0.7,0.4,1.3,0.7,2,1c0.7,0.3,1.4,0.5,2,0.7l0.9,0.3l0.3-0.9
		c0.1-0.5,0.4-1,0.8-1.4c1.2-1.1,3.1-1.1,4.3,0c0.4,0.4,0.7,0.8,0.8,1.4l0.3,0.9l0.9-0.3c0.7-0.2,1.4-0.4,2-0.7c0.7-0.3,1.4-0.6,2-1
		l0.8-0.5l-0.4-0.8c-0.3-0.5-0.4-1-0.4-1.5c0-0.8,0.3-1.6,0.9-2.1c0.6-0.6,1.3-0.9,2.1-0.9c0.5,0,1.1,0.1,1.5,0.4l0.8,0.5l0.5-0.8
		c0.4-0.7,0.7-1.3,1-2c0.3-0.7,0.5-1.4,0.7-2.1l0.3-0.9L31.2,20.1z M29.4,22.6c-0.1,0.3-0.3,0.6-0.4,1c-0.5-0.2-1-0.2-1.6-0.2
		c-1.3,0-2.6,0.5-3.5,1.5c-0.9,0.9-1.5,2.2-1.5,3.5c0,0.5,0.1,1.1,0.2,1.6c-0.3,0.2-0.6,0.3-1,0.4c-0.3,0.1-0.7,0.3-1,0.4
		c-0.2-0.5-0.6-0.9-1-1.3c-0.9-0.9-2.2-1.4-3.5-1.4c-1.3,0-2.6,0.5-3.5,1.4c-0.4,0.4-0.7,0.8-1,1.3c-0.3-0.1-0.7-0.2-1-0.4
		c-0.3-0.1-0.6-0.3-1-0.4c0.2-0.5,0.2-1,0.2-1.6c0-1.3-0.5-2.6-1.5-3.5c-0.9-0.9-2.2-1.5-3.5-1.5c-0.5,0-1.1,0.1-1.6,0.2
		c-0.1-0.3-0.3-0.5-0.4-0.8l-0.1-0.2c-0.1-0.3-0.2-0.6-0.3-0.9c0.5-0.3,0.9-0.6,1.3-1c0.9-1,1.4-2.2,1.4-3.5c0-1.3-0.5-2.6-1.4-3.5
		c-0.4-0.4-0.8-0.7-1.3-1c0.1-0.3,0.2-0.6,0.4-1c0.1-0.3,0.3-0.7,0.4-1c0.5,0.2,1,0.2,1.6,0.2c1.3,0,2.6-0.5,3.5-1.5
		C9.4,8.6,9.9,7.3,9.9,6c0-0.5-0.1-1.1-0.2-1.6c0.3-0.2,0.6-0.3,1-0.4c0.3-0.1,0.7-0.3,1-0.4c0.2,0.5,0.6,0.9,1,1.3
		c0.9,0.9,2.2,1.4,3.5,1.4c1.3,0,2.6-0.5,3.5-1.4c0.4-0.4,0.7-0.8,1-1.3c0.3,0.1,0.7,0.2,1,0.4c0.3,0.1,0.7,0.3,1,0.4
		c-0.2,0.5-0.2,1.1-0.2,1.6c0,1.3,0.5,2.6,1.5,3.5c0.9,0.9,2.2,1.5,3.5,1.5c0.5,0,1.1-0.1,1.6-0.2c0.2,0.3,0.3,0.6,0.4,1
		c0.1,0.3,0.3,0.7,0.4,1c-0.5,0.2-0.9,0.6-1.3,1c-0.9,1-1.4,2.2-1.4,3.5c0,1.3,0.5,2.6,1.4,3.5c0.4,0.4,0.8,0.7,1.3,0.9
		C29.6,22,29.5,22.3,29.4,22.6z"/>
	<path class="st0" d="M16.1,11.2c-3.3,0-6,2.7-6,6s2.7,6,6,6s6-2.7,6-6S19.4,11.2,16.1,11.2z M16.1,21.2c-2.2,0-4-1.8-4-4s1.8-4,4-4
		s4,1.8,4,4S18.3,21.2,16.1,21.2z"/>
</g>
</svg>
