<?xml version="1.0" encoding="utf-8"?>
<!-- Generator: Adobe Illustrator 28.0.0, SVG Export Plug-In . SVG Version: 6.00 Build 0)  -->
<svg version="1.1" id="Graphic_Elements" xmlns="http://www.w3.org/2000/svg" xmlns:xlink="http://www.w3.org/1999/xlink" x="0px"
	 y="0px" viewBox="0 0 101 101" style="enable-background:new 0 0 101 101;" xml:space="preserve">
<style type="text/css">
	.st0{fill-rule:evenodd;clip-rule:evenodd;fill:#B5B4B4;}
</style>
<g>
	<g id="WA_Logo_10_">
		<g>
			<path class="st0" d="M83,19.9C74.9,11.8,64.1,7.3,52.7,7.3C29.1,7.3,9.9,26.5,9.9,50.1c0,7.5,2,14.9,5.7,21.4L9.5,93.7l22.7-6
				c6.3,3.4,13.3,5.2,20.5,5.2h0c0,0,0,0,0,0c23.6,0,42.8-19.2,42.8-42.8C95.5,38.7,91.1,28,83,19.9z M52.7,85.7L52.7,85.7
				c-6.4,0-12.7-1.7-18.1-5L33.3,80l-13.5,3.5l3.6-13.1L22.5,69c-3.6-5.7-5.4-12.2-5.4-18.9c0-19.6,16-35.6,35.6-35.6
				c9.5,0,18.4,3.7,25.2,10.4c6.7,6.7,10.4,15.7,10.4,25.2C88.3,69.8,72.3,85.7,52.7,85.7z M72.2,59.1c-1.1-0.5-6.3-3.1-7.3-3.5
				c-1-0.4-1.7-0.5-2.4,0.5c-0.7,1.1-2.8,3.5-3.4,4.2c-0.6,0.7-1.2,0.8-2.3,0.3c-1.1-0.5-4.5-1.7-8.6-5.3c-3.2-2.8-5.3-6.3-6-7.4
				c-0.6-1.1-0.1-1.6,0.5-2.2c0.5-0.5,1.1-1.2,1.6-1.9c0.5-0.6,0.7-1.1,1.1-1.8c0.4-0.7,0.2-1.3-0.1-1.9c-0.3-0.5-2.4-5.8-3.3-7.9
				c-0.9-2.1-1.8-1.8-2.4-1.8c-0.6,0-1.3,0-2.1,0s-1.9,0.3-2.9,1.3c-1,1.1-3.7,3.7-3.7,8.9c0,5.3,3.8,10.4,4.4,11.1
				c0.5,0.7,7.5,11.5,18.3,16.2c2.6,1.1,4.5,1.8,6.1,2.3c2.6,0.8,4.9,0.7,6.7,0.4c2.1-0.3,6.3-2.6,7.2-5.1c0.9-2.5,0.9-4.6,0.6-5.1
				C74,59.9,73.3,59.6,72.2,59.1z"/>
		</g>
	</g>
</g>
</svg>
