<?xml version="1.0" encoding="utf-8"?>
<!-- Generator: Adobe Illustrator 28.0.0, SVG Export Plug-In . SVG Version: 6.00 Build 0)  -->
<svg version="1.1" id="Layer_1" xmlns="http://www.w3.org/2000/svg" xmlns:xlink="http://www.w3.org/1999/xlink" x="0px" y="0px"
	 viewBox="0 0 19.8 19.8" style="enable-background:new 0 0 19.8 19.8;" xml:space="preserve">
<style type="text/css">
	.st0{fill:#313132;}
</style>
<path id="XMLID_6393_" class="st0" d="M16.9,7.9h-1.5c-0.1,0-0.2-0.4-0.3-0.7l1-1c0.2-0.2,0.2-0.4,0.2-0.6c0-0.2-0.1-0.4-0.2-0.6
	l-1.4-1.4c-0.2-0.2-0.4-0.2-0.6-0.2c-0.2,0-0.4,0.1-0.6,0.3l-1,1c-0.2-0.1-0.7-0.2-0.7-0.3V2.9c0-0.5-0.5-1-1-1h-2c-0.5,0-1,0.5-1,1
	v1.5c0,0.1-0.4,0.2-0.7,0.3l-1-1C6.1,3.5,5.9,3.4,5.7,3.4c-0.2,0-0.4,0.1-0.6,0.2L3.7,5.1C3.5,5.2,3.4,5.5,3.4,5.7
	c0,0.2,0.1,0.4,0.3,0.6l1,1C4.6,7.5,4.5,7.9,4.4,7.9H2.9c-0.5,0-1,0.5-1,1v2c0,0.5,0.5,1,1,1h1.5c0.1,0,0.2,0.4,0.3,0.7l-1,1
	c-0.3,0.3-0.3,0.9,0,1.2l1.4,1.4c0.2,0.2,0.4,0.2,0.6,0.2c0.2,0,0.4-0.1,0.6-0.3l1-1c0.2,0.1,0.7,0.2,0.7,0.3v1.5c0,0.5,0.5,1,1,1h2
	c0.5,0,1-0.5,1-1v-1.5c0-0.1,0.4-0.2,0.7-0.3l1,1c0.2,0.2,0.4,0.2,0.6,0.2c0.2,0,0.4-0.1,0.6-0.2l1.4-1.4c0.3-0.3,0.3-0.9,0-1.2
	l-1-1c0.1-0.2,0.2-0.7,0.3-0.7h1.5c0.5,0,1-0.5,1-1v-2C17.9,8.5,17.4,7.9,16.9,7.9z M9.9,12.8C8.3,12.8,7,11.5,7,9.9S8.3,7,9.9,7
	c1.6,0,2.9,1.3,2.9,2.9S11.5,12.8,9.9,12.8z"/>
</svg>
