<?xml version="1.0" encoding="utf-8"?>
<!-- Generator: Adobe Illustrator 28.0.0, SVG Export Plug-In . SVG Version: 6.00 Build 0)  -->
<svg version="1.1" id="Layer_1" xmlns="http://www.w3.org/2000/svg" xmlns:xlink="http://www.w3.org/1999/xlink" x="0px" y="0px"
	 viewBox="0 0 19.8 19.8" style="enable-background:new 0 0 19.8 19.8;" xml:space="preserve">
<style type="text/css">
	.st0{fill:#313132;}
</style>
<g>
	<g>
		<path class="st0" d="M17.5,11.9h-4c-0.3,0-0.6,0.3-0.6,0.6v5.3c0,0.3,0.2,0.5,0.5,0.5h4.1c0.2,0,0.4-0.2,0.4-0.4v-5.5
			C18,12.1,17.8,11.9,17.5,11.9z"/>
		<path class="st0" d="M8.1,12.4v5.4c0,0.3,0.2,0.5,0.5,0.5h3.3c0.3,0,0.5-0.2,0.5-0.5v-5.4c0-0.3-0.2-0.5-0.5-0.5H8.6
			C8.3,11.9,8.1,12.1,8.1,12.4z"/>
		<path class="st0" d="M6.6,11.9H5.4c-1.7,0-3.1,1.4-3.1,3.1v0.1c0,1.7,1.4,3.1,3.1,3.1h1.3c0.5,0,0.9-0.4,0.9-0.9v-4.5
			C7.5,12.3,7.1,11.9,6.6,11.9z M4.3,15.8c-0.4,0-0.7-0.3-0.7-0.7s0.3-0.7,0.7-0.7S5,14.7,5,15.1S4.7,15.8,4.3,15.8z"/>
		<path class="st0" d="M12.4,3.8L9.6,6.6c-0.2,0.2-0.2,0.6,0,0.8l3.8,3.8c0.2,0.2,0.5,0.2,0.7,0l2.9-2.9c0.2-0.2,0.2-0.5,0-0.6
			l-3.9-3.9C12.9,3.6,12.6,3.6,12.4,3.8z"/>
		<path class="st0" d="M6.7,11.2h5.8c0.1,0,0.1-0.1,0.1-0.2L9.2,7.7C9,7.5,8.7,7.5,8.5,7.7l-2.3,2.3c-0.2,0.2-0.2,0.5,0,0.7l0.4,0.4
			C6.5,11.2,6.6,11.2,6.7,11.2z"/>
		<path class="st0" d="M2.2,2v4c0,0.3,0.3,0.6,0.6,0.6h5.3c0.3,0,0.5-0.2,0.5-0.5V2c0-0.2-0.2-0.4-0.4-0.4H2.6
			C2.4,1.5,2.2,1.7,2.2,2z"/>
		<path class="st0" d="M4.2,11.1c0,0,3.1-2.9,3.9-3.8c0.1-0.1,0-0.2-0.1-0.2l-5.3,0c-0.2,0-0.4,0.2-0.4,0.4V11
			c0,0.2,0.2,0.4,0.4,0.4h0.8C3.7,11.4,4,11.3,4.2,11.1z"/>
	</g>
</g>
</svg>
