<?xml version="1.0" encoding="utf-8"?>
<!-- Generator: Adobe Illustrator 28.0.0, SVG Export Plug-In . SVG Version: 6.00 Build 0)  -->
<svg version="1.1" id="Graphic_Elements" xmlns="http://www.w3.org/2000/svg" xmlns:xlink="http://www.w3.org/1999/xlink" x="0px"
	 y="0px" viewBox="0 0 101 101" style="enable-background:new 0 0 101 101;" xml:space="preserve">
<style type="text/css">
	.st0{fill-rule:evenodd;clip-rule:evenodd;fill:#FE0000;}
	.st1{fill:#B5B4B4;}
</style>
<path class="st0" d="M5,23c-1.9,0-3.4,1.6-3.3,3.5c1.9,36.3,20.6,58.1,52.9,58.7c0.8,0,1.6-0.3,2.2-0.8l0,0c0.6-0.6,1-1.3,1-2.2
	l0-15.3c0-2.1,2-3.7,4.1-3.2c9.8,2.4,17.3,9.9,21,19.5c0.5,1.2,1.7,2.1,3,2.1l10.8,0c2.3,0,3.9-2.3,3.1-4.5
	C95.2,68.6,87,60.8,80.1,56.5c-1.9-1.2-2-3.9-0.2-5.3c6.4-5,13.5-13.3,16.6-23.9c0.6-2.1-1-4.2-3.2-4.2l-9.5,0
	c-1.4,0-2.6,0.9-3.1,2.1C77.4,34.8,70,43.4,62.3,46.5c-2.1,0.9-4.5-0.8-4.5-3.1V26.3c0-1.8-1.5-3.3-3.3-3.3H45
	c-1.8,0-3.3,1.5-3.3,3.3l0,35c0,2.5-2.7,4.1-4.9,2.9c-8.4-4.6-17-16.1-18.1-38c-0.1-1.7-1.5-3.1-3.3-3.1L5,23z"/>
</svg>
