<!-- icon666.com - MILLIONS vector ICONS FREE --><svg viewBox="0 0 32 32" xmlns="http://www.w3.org/2000/svg"><g id="_60_blog" data-name="60 blog"><path d="m29 11h-7v-7a1 1 0 0 0 -1-1h-18a1 1 0 0 0 -1 1v20.88a4.13 4.13 0 0 0 4.12 4.12h18.88a5 5 0 0 0 5-5v-12a1 1 0 0 0 -1-1zm-25 13.88v-19.88h16v19a4.92 4.92 0 0 0 1 3h-14.88a2.12 2.12 0 0 1 -2.12-2.12zm24-.88a3 3 0 0 1 -5.82 1h2.82a1 1 0 0 0 0-2h-3v-2h3a1 1 0 0 0 0-2h-3v-2h3a1 1 0 0 0 0-2h-3v-2h6zm-11-17h-4a1 1 0 0 0 -1 1v4a1 1 0 0 0 1 1h4a1 1 0 0 0 1-1v-4a1 1 0 0 0 -1-1zm-1 4h-2v-2h2zm-10-3a1 1 0 0 1 1-1h3a1 1 0 0 1 0 2h-3a1 1 0 0 1 -1-1zm0 4a1 1 0 0 1 1-1h3a1 1 0 0 1 0 2h-3a1 1 0 0 1 -1-1zm12 4a1 1 0 0 1 -1 1h-10a1 1 0 0 1 0-2h10a1 1 0 0 1 1 1zm0 4a1 1 0 0 1 -1 1h-10a1 1 0 0 1 0-2h10a1 1 0 0 1 1 1zm-6 4a1 1 0 0 1 -1 1h-4a1 1 0 0 1 0-2h4a1 1 0 0 1 1 1zm6 0a1 1 0 1 1 -1-1 1 1 0 0 1 1 1zm-3 0a1 1 0 1 1 -1-1 1 1 0 0 1 1 1z"></path></g></svg>