<?xml version="1.0" encoding="UTF-8"?>
<!DOCTYPE svg PUBLIC "-//W3C//DTD SVG 1.1//EN" "http://www.w3.org/Graphics/SVG/1.1/DTD/svg11.dtd">
<!-- Creator: CorelDRAW 2020 (64-Bit) -->
<svg xmlns="http://www.w3.org/2000/svg" xml:space="preserve" width="618px" height="200px" version="1.1" style="shape-rendering:geometricPrecision; text-rendering:geometricPrecision; image-rendering:optimizeQuality; fill-rule:evenodd; clip-rule:evenodd"
viewBox="0 0 69.74 22.57"
 xmlns:xlink="http://www.w3.org/1999/xlink"
 xmlns:xodm="http://www.corel.com/coreldraw/odm/2003">
 <defs>
  <style type="text/css">
   <![CDATA[
    .str0 {stroke:#FEFEFE;stroke-width:0.03;stroke-miterlimit:22.9256}
    .fil1 {fill:none}
    .fil0 {fill:#FEFEFE}
   ]]>
  </style>
 </defs>
 <g id="Layer_x0020_1">
  <metadata id="CorelCorpID_0Corel-Layer"/>
  <g>
   <path class="fil0" d="M0 22.55l0 0 0 0zm0.64 0l34.58 0 0 0c11.5,0 23.01,0 34.51,0 -3.35,-0.16 -5.92,-1.31 -8.13,-3.05 -2.73,-2.16 -4.96,-4.77 -6.68,-7.74 -4.84,-8.33 -12.57,-11.7 -19.57,-11.75 -7,-0.04 -14.86,3.06 -20,12.01 -1.66,2.89 -3.87,5.39 -6.52,7.48 -2.21,1.74 -4.84,2.89 -8.19,3.05z"/>
   <path id="1" class="fil1 str0" d="M0 22.55l0 0m0.64 0l34.58 0 0 0c11.5,0 23.01,0 34.51,0 -3.35,-0.16 -5.92,-1.31 -8.13,-3.05 -2.73,-2.16 -4.96,-4.77 -6.68,-7.74 -4.84,-8.33 -12.57,-11.7 -19.57,-11.75 -7,-0.04 -14.86,3.06 -20,12.01 -1.66,2.89 -3.87,5.39 -6.52,7.48 -2.21,1.74 -4.84,2.89 -8.19,3.05z"/>
  </g>
 </g>
</svg>
