<?xml version="1.0" encoding="utf-8"?>
<!-- Generator: Adobe Illustrator 28.0.0, SVG Export Plug-In . SVG Version: 6.00 Build 0)  -->
<svg version="1.1" id="Слой_1" xmlns="http://www.w3.org/2000/svg" xmlns:xlink="http://www.w3.org/1999/xlink" x="0px" y="0px"
	 viewBox="0 0 564 516.6" style="enable-background:new 0 0 564 516.6;" xml:space="preserve">
<style type="text/css">
	.st0{opacity:0.53;fill:#FFFFFF;}
	.st1{opacity:0.78;fill:#FFFFFF;}
</style>
<g>
	<path class="st0" d="M376.6,5.7H166.8c-15.7,0-30.3,8.3-38.2,21.8C77.8,114.5,3.7,226.8,7.6,258.4h229.3L376.6,5.7z"/>
	<path class="st0" d="M541.3,301.9l-201.2,0c-8,0-15.3,4.4-18.9,11.4c-53.4,101.4-100.5,188.1-143.6,197.9h237.5
		c22.9,0,44-12.3,55.2-32.1l85.7-152.2C562.4,315.7,554.2,301.9,541.3,301.9z"/>
	<path class="st1" d="M541.3,215H340.1c-8,0-15.3-4.4-18.9-11.4C267.8,102.1,220.7,15.5,177.6,5.7l219.6,0c34,0,65.3,18.2,81.9,47.7
		l77,136.7C562.4,201.2,554.2,215,541.3,215z"/>
	<path class="st1" d="M423.7,511.2H182.4c-25.4,0-48.9-13.4-61.7-35.2C70.6,390.3,1.5,284.7,7.6,258.4h229.3
		C300.8,365.5,359.8,513.5,423.7,511.2z"/>
</g>
</svg>
