<?xml version="1.0" encoding="utf-8"?>
<!-- Generator: Adobe Illustrator 28.0.0, SVG Export Plug-In . SVG Version: 6.00 Build 0)  -->
<svg version="1.1" id="Слой_1" xmlns="http://www.w3.org/2000/svg" xmlns:xlink="http://www.w3.org/1999/xlink" x="0px" y="0px"
	 viewBox="0 0 40.1 37.8" style="enable-background:new 0 0 40.1 37.8;" xml:space="preserve">
<style type="text/css">
	.st0{fill:#313132;}
</style>
<g>
	<path class="st0" d="M31.5,3.9H8.3c-1,0-1.9,0.4-2.5,1.1C5.2,5.6,4.7,6.5,4.7,7.5v23.2c0,1,0.4,1.9,1.1,2.5
		c0.7,0.7,1.5,1.1,2.5,1.1h23.2c1,0,1.9-0.4,2.5-1.1c0.7-0.7,1.1-1.5,1.1-2.5V7.5c0-1-0.4-1.9-1.1-2.5C33.4,4.3,32.5,3.9,31.5,3.9
		 M8.3,1.8h23.2c1.6,0,3,0.6,4,1.7c1,1,1.7,2.4,1.7,4v23.2c0,1.6-0.6,3-1.7,4c-1,1-2.4,1.7-4,1.7H8.3c-1.6,0-3-0.6-4-1.7
		c-1-1-1.7-2.4-1.7-4V7.5c0-1.6,0.6-3,1.7-4C5.4,2.4,6.8,1.8,8.3,1.8"/>
	<path class="st0" d="M23.7,4.7c1,0,1.8,0.8,1.8,1.8c0,1-0.8,1.8-1.8,1.8c-1,0-1.8-0.8-1.8-1.8C21.9,5.5,22.7,4.7,23.7,4.7"/>
	<path class="st0" d="M22.8,14.2c1,0,1.8,0.8,1.8,1.8c0,1-0.8,1.8-1.8,1.8c-1,0-1.8-0.8-1.8-1.8C21,15,21.8,14.2,22.8,14.2"/>
	<path class="st0" d="M31.5,10.4c1,0,1.8,0.8,1.8,1.8c0,1-0.8,1.8-1.8,1.8c-1,0-1.8-0.8-1.8-1.8C29.7,11.2,30.5,10.4,31.5,10.4"/>
	<path class="st0" d="M15.3,10.4c1,0,1.8,0.8,1.8,1.8c0,1-0.8,1.8-1.8,1.8c-1,0-1.8-0.8-1.8-1.8C13.6,11.2,14.4,10.4,15.3,10.4"/>
	<path class="st0" d="M9.3,6.5c1,0,1.8,0.8,1.8,1.8c0,1-0.8,1.8-1.8,1.8c-1,0-1.8-0.8-1.8-1.8C7.6,7.3,8.4,6.5,9.3,6.5"/>
	<path class="st0" d="M7.9,21.2c1,0,1.8,0.8,1.8,1.8c0,1-0.8,1.8-1.8,1.8c-1,0-1.8-0.8-1.8-1.8C6.1,22,6.9,21.2,7.9,21.2"/>
	<path class="st0" d="M17,20.7c1,0,1.8,0.8,1.8,1.8c0,1-0.8,1.8-1.8,1.8c-1,0-1.8-0.8-1.8-1.8C15.3,21.5,16.1,20.7,17,20.7"/>
	<path class="st0" d="M27.4,20.8c1,0,1.8,0.8,1.8,1.8c0,1-0.8,1.8-1.8,1.8c-1,0-1.8-0.8-1.8-1.8C25.7,21.6,26.5,20.8,27.4,20.8"/>
	<path class="st0" d="M30.6,28.6c1,0,1.8,0.8,1.8,1.8c0,1-0.8,1.8-1.8,1.8c-1,0-1.8-0.8-1.8-1.8C28.9,29.4,29.7,28.6,30.6,28.6"/>
	<path class="st0" d="M22.3,26.8c1,0,1.8,0.8,1.8,1.8c0,1-0.8,1.8-1.8,1.8c-1,0-1.8-0.8-1.8-1.8C20.6,27.6,21.4,26.8,22.3,26.8"/>
	<path class="st0" d="M12.8,27.7c1,0,1.8,0.8,1.8,1.8c0,1-0.8,1.8-1.8,1.8c-1,0-1.8-0.8-1.8-1.8C11.1,28.4,11.9,27.7,12.8,27.7"/>
	<path class="st0" d="M17.7,27.7c0.6,0,1.1,0.5,1.1,1.1c0,0.6-0.5,1.1-1.1,1.1s-1.1-0.5-1.1-1.1C16.6,28.2,17.1,27.7,17.7,27.7"/>
	<path class="st0" d="M13.4,24.7c0.6,0,1.1,0.5,1.1,1.1c0,0.6-0.5,1.1-1.1,1.1c-0.6,0-1.1-0.5-1.1-1.1
		C12.3,25.2,12.8,24.7,13.4,24.7"/>
	<path class="st0" d="M7.7,25.6c0.6,0,1.1,0.5,1.1,1.1c0,0.6-0.5,1.1-1.1,1.1c-0.6,0-1.1-0.5-1.1-1.1C6.7,26,7.2,25.6,7.7,25.6"/>
	<path class="st0" d="M7.8,30.8c0.6,0,1.1,0.5,1.1,1.1c0,0.6-0.5,1.1-1.1,1.1c-0.6,0-1.1-0.5-1.1-1.1C6.7,31.3,7.2,30.8,7.8,30.8"/>
	<path class="st0" d="M20.8,31.2c0.6,0,1.1,0.5,1.1,1.1c0,0.6-0.5,1.1-1.1,1.1s-1.1-0.5-1.1-1.1C19.7,31.7,20.2,31.2,20.8,31.2"/>
	<path class="st0" d="M26,30.4c0.6,0,1.1,0.5,1.1,1.1c0,0.6-0.5,1.1-1.1,1.1c-0.6,0-1.1-0.5-1.1-1.1C24.9,30.9,25.4,30.4,26,30.4"/>
	<path class="st0" d="M24.2,23.1c0.6,0,1.1,0.5,1.1,1.1c0,0.6-0.5,1.1-1.1,1.1c-0.6,0-1.1-0.5-1.1-1.1
		C23.2,23.6,23.6,23.1,24.2,23.1"/>
	<path class="st0" d="M29.5,25.3c0.6,0,1.1,0.5,1.1,1.1c0,0.6-0.5,1.1-1.1,1.1c-0.6,0-1.1-0.5-1.1-1.1
		C28.5,25.8,28.9,25.3,29.5,25.3"/>
	<path class="st0" d="M32.5,22.5c0.6,0,1.1,0.5,1.1,1.1c0,0.6-0.5,1.1-1.1,1.1c-0.6,0-1.1-0.5-1.1-1.1C31.4,23,31.9,22.5,32.5,22.5"
		/>
	<path class="st0" d="M32.6,15.9c0.6,0,1.1,0.5,1.1,1.1c0,0.6-0.5,1.1-1.1,1.1c-0.6,0-1.1-0.5-1.1-1.1C31.6,16.4,32,15.9,32.6,15.9"
		/>
	<path class="st0" d="M27.3,18c0.6,0,1.1,0.5,1.1,1.1c0,0.6-0.5,1.1-1.1,1.1c-0.6,0-1.1-0.5-1.1-1.1C26.2,18.5,26.7,18,27.3,18"/>
	<path class="st0" d="M20.4,18.3c0.6,0,1.1,0.5,1.1,1.1c0,0.6-0.5,1.1-1.1,1.1c-0.6,0-1.1-0.5-1.1-1.1
		C19.3,18.8,19.8,18.3,20.4,18.3"/>
	<path class="st0" d="M9.7,15.1c0.6,0,1.1,0.5,1.1,1.1c0,0.6-0.5,1.1-1.1,1.1c-0.6,0-1.1-0.5-1.1-1.1C8.6,15.6,9.1,15.1,9.7,15.1"/>
	<path class="st0" d="M13.5,15.2c0.6,0,1.1,0.5,1.1,1.1c0,0.6-0.5,1.1-1.1,1.1c-0.6,0-1.1-0.5-1.1-1.1
		C12.4,15.7,12.9,15.2,13.5,15.2"/>
	<path class="st0" d="M12.1,19.8c0.6,0,1.1,0.5,1.1,1.1c0,0.6-0.5,1.1-1.1,1.1c-0.6,0-1.1-0.5-1.1-1.1C11,20.2,11.5,19.8,12.1,19.8"
		/>
	<path class="st0" d="M7.4,18.2c0.6,0,1.1,0.5,1.1,1.1c0,0.6-0.5,1.1-1.1,1.1c-0.6,0-1.1-0.5-1.1-1.1C6.3,18.7,6.8,18.2,7.4,18.2"/>
	<path class="st0" d="M21,12.2c0.6,0,1.1,0.5,1.1,1.1c0,0.6-0.5,1.1-1.1,1.1c-0.6,0-1.1-0.5-1.1-1.1C20,12.7,20.4,12.2,21,12.2"/>
	<path class="st0" d="M25.9,12c0.6,0,1.1,0.5,1.1,1.1c0,0.6-0.5,1.1-1.1,1.1c-0.6,0-1.1-0.5-1.1-1.1C24.9,12.5,25.4,12,25.9,12"/>
	<path class="st0" d="M9,10.9c0.6,0,1.1,0.5,1.1,1.1c0,0.6-0.5,1.1-1.1,1.1C8.4,13.1,8,12.6,8,12C8,11.4,8.4,10.9,9,10.9"/>
	<path class="st0" d="M13.1,5.7c0.6,0,1.1,0.5,1.1,1.1c0,0.6-0.5,1.1-1.1,1.1c-0.6,0-1.1-0.5-1.1-1.1C12,6.2,12.5,5.7,13.1,5.7"/>
	<path class="st0" d="M19.4,7.5c0.6,0,1.1,0.5,1.1,1.1c0,0.6-0.5,1.1-1.1,1.1c-0.6,0-1.1-0.5-1.1-1.1C18.3,8,18.8,7.5,19.4,7.5"/>
	<path class="st0" d="M28.2,5.7c0.6,0,1.1,0.5,1.1,1.1c0,0.6-0.5,1.1-1.1,1.1c-0.6,0-1.1-0.5-1.1-1.1C27.1,6.2,27.6,5.7,28.2,5.7"/>
	<path class="st0" d="M32.3,5.6c0.6,0,1.1,0.5,1.1,1.1s-0.5,1.1-1.1,1.1c-0.6,0-1.1-0.5-1.1-1.1S31.7,5.6,32.3,5.6"/>
	<path class="st0" d="M29.7,7.8c0.3,0,0.5,0.2,0.5,0.5c0,0.3-0.2,0.5-0.5,0.5c-0.3,0-0.5-0.2-0.5-0.5C29.2,8,29.4,7.8,29.7,7.8"/>
	<path class="st0" d="M26.8,9.6c0.3,0,0.5,0.2,0.5,0.5s-0.2,0.5-0.5,0.5c-0.3,0-0.5-0.2-0.5-0.5S26.5,9.6,26.8,9.6"/>
	<path class="st0" d="M32.5,8.6c0.3,0,0.5,0.2,0.5,0.5c0,0.3-0.2,0.5-0.5,0.5c-0.3,0-0.5-0.2-0.5-0.5C32,8.8,32.2,8.6,32.5,8.6"/>
	<path class="st0" d="M29.1,15.6c0.3,0,0.5,0.2,0.5,0.5c0,0.3-0.2,0.5-0.5,0.5c-0.3,0-0.5-0.2-0.5-0.5
		C28.6,15.8,28.9,15.6,29.1,15.6"/>
	<path class="st0" d="M26.3,15.1c0.3,0,0.5,0.2,0.5,0.5c0,0.3-0.2,0.5-0.5,0.5c-0.3,0-0.5-0.2-0.5-0.5C25.8,15.3,26,15.1,26.3,15.1"
		/>
	<path class="st0" d="M23.6,11.3c0.3,0,0.5,0.2,0.5,0.5s-0.2,0.5-0.5,0.5c-0.3,0-0.5-0.2-0.5-0.5S23.4,11.3,23.6,11.3"/>
	<path class="st0" d="M18.6,10.8c0.3,0,0.5,0.2,0.5,0.5c0,0.3-0.2,0.5-0.5,0.5c-0.3,0-0.5-0.2-0.5-0.5C18.1,11,18.3,10.8,18.6,10.8"
		/>
	<path class="st0" d="M12.8,9.5c0.3,0,0.5,0.2,0.5,0.5c0,0.3-0.2,0.5-0.5,0.5c-0.3,0-0.5-0.2-0.5-0.5C12.3,9.7,12.5,9.5,12.8,9.5"/>
	<path class="st0" d="M17.1,6.5c0.3,0,0.5,0.2,0.5,0.5c0,0.3-0.2,0.5-0.5,0.5S16.6,7.3,16.6,7C16.6,6.7,16.8,6.5,17.1,6.5"/>
	<path class="st0" d="M20.6,5.7c0.3,0,0.5,0.2,0.5,0.5s-0.2,0.5-0.5,0.5c-0.3,0-0.5-0.2-0.5-0.5S20.3,5.7,20.6,5.7"/>
	<path class="st0" d="M19.7,15.7c0.3,0,0.5,0.2,0.5,0.5c0,0.3-0.2,0.5-0.5,0.5c-0.3,0-0.5-0.2-0.5-0.5
		C19.3,15.9,19.5,15.7,19.7,15.7"/>
	<path class="st0" d="M17,16c0.3,0,0.5,0.2,0.5,0.5S17.3,17,17,17s-0.5-0.2-0.5-0.5S16.8,16,17,16"/>
	<path class="st0" d="M11.5,13.1c0.3,0,0.5,0.2,0.5,0.5c0,0.3-0.2,0.5-0.5,0.5c-0.3,0-0.5-0.2-0.5-0.5C11,13.3,11.2,13.1,11.5,13.1"
		/>
	<path class="st0" d="M7.1,14c0.3,0,0.5,0.2,0.5,0.5S7.4,15,7.1,15c-0.3,0-0.5-0.2-0.5-0.5S6.9,14,7.1,14"/>
	<path class="st0" d="M7.1,10.5c0.3,0,0.5,0.2,0.5,0.5c0,0.3-0.2,0.5-0.5,0.5c-0.3,0-0.5-0.2-0.5-0.5C6.6,10.7,6.8,10.5,7.1,10.5"/>
	<path class="st0" d="M11.3,17.5c0.3,0,0.5,0.2,0.5,0.5s-0.2,0.5-0.5,0.5c-0.3,0-0.5-0.2-0.5-0.5S11.1,17.5,11.3,17.5"/>
	<path class="st0" d="M15.2,18.9c0.3,0,0.5,0.2,0.5,0.5c0,0.3-0.2,0.5-0.5,0.5c-0.3,0-0.5-0.2-0.5-0.5C14.8,19.1,15,18.9,15.2,18.9"
		/>
	<path class="st0" d="M25.2,20c0.3,0,0.5,0.2,0.5,0.5c0,0.3-0.2,0.5-0.5,0.5c-0.3,0-0.5-0.2-0.5-0.5C24.7,20.2,24.9,20,25.2,20"/>
	<path class="st0" d="M31.4,20c0.3,0,0.5,0.2,0.5,0.5c0,0.3-0.2,0.5-0.5,0.5c-0.3,0-0.5-0.2-0.5-0.5C30.9,20.2,31.1,20,31.4,20"/>
	<path class="st0" d="M32.1,26.9c0.3,0,0.5,0.2,0.5,0.5s-0.2,0.5-0.5,0.5c-0.3,0-0.5-0.2-0.5-0.5S31.8,26.9,32.1,26.9"/>
	<path class="st0" d="M27.1,28c0.3,0,0.5,0.2,0.5,0.5c0,0.3-0.2,0.5-0.5,0.5c-0.3,0-0.5-0.2-0.5-0.5C26.6,28.2,26.8,28,27.1,28"/>
	<path class="st0" d="M21.6,24.8c0.3,0,0.5,0.2,0.5,0.5c0,0.3-0.2,0.5-0.5,0.5c-0.3,0-0.5-0.2-0.5-0.5C21.1,25,21.3,24.8,21.6,24.8"
		/>
	<path class="st0" d="M21,21.4c0.3,0,0.5,0.2,0.5,0.5c0,0.3-0.2,0.5-0.5,0.5c-0.3,0-0.5-0.2-0.5-0.5C20.5,21.6,20.7,21.4,21,21.4"/>
	<path class="st0" d="M17,25.7c0.3,0,0.5,0.2,0.5,0.5c0,0.3-0.2,0.5-0.5,0.5c-0.3,0-0.5-0.2-0.5-0.5C16.5,25.9,16.7,25.7,17,25.7"/>
	<path class="st0" d="M16,31.3c0.3,0,0.5,0.2,0.5,0.5s-0.2,0.5-0.5,0.5c-0.3,0-0.5-0.2-0.5-0.5S15.7,31.3,16,31.3"/>
	<path class="st0" d="M12.8,22.5c0.3,0,0.5,0.2,0.5,0.5c0,0.3-0.2,0.5-0.5,0.5c-0.3,0-0.5-0.2-0.5-0.5
		C12.3,22.8,12.5,22.5,12.8,22.5"/>
	<path class="st0" d="M10.3,26c0.3,0,0.5,0.2,0.5,0.5s-0.2,0.5-0.5,0.5c-0.3,0-0.5-0.2-0.5-0.5S10,26,10.3,26"/>
	<path class="st0" d="M9.3,28.8c0.3,0,0.5,0.2,0.5,0.5c0,0.3-0.2,0.5-0.5,0.5c-0.3,0-0.5-0.2-0.5-0.5C8.8,29,9,28.8,9.3,28.8"/>
	<path class="st0" d="M19.5,25.3c0.1,0,0.3,0.1,0.3,0.3c0,0.1-0.1,0.3-0.3,0.3c-0.1,0-0.3-0.1-0.3-0.3
		C19.3,25.4,19.4,25.3,19.5,25.3"/>
	<path class="st0" d="M11.8,24.3c0.1,0,0.3,0.1,0.3,0.3c0,0.1-0.1,0.3-0.3,0.3c-0.1,0-0.3-0.1-0.3-0.3
		C11.5,24.5,11.6,24.3,11.8,24.3"/>
	<path class="st0" d="M7,29.3c0.1,0,0.3,0.1,0.3,0.3c0,0.1-0.1,0.3-0.3,0.3c-0.1,0-0.3-0.1-0.3-0.3C6.7,29.4,6.8,29.3,7,29.3"/>
	<path class="st0" d="M25.9,26.1c0.1,0,0.3,0.1,0.3,0.3c0,0.1-0.1,0.3-0.3,0.3c-0.1,0-0.3-0.1-0.3-0.3
		C25.7,26.2,25.8,26.1,25.9,26.1"/>
</g>
</svg>
