<svg width="832.000000" height="277.000000" viewBox="0 0 832 277" fill="none" xmlns="http://www.w3.org/2000/svg" xmlns:xlink="http://www.w3.org/1999/xlink">
	<desc>
			Created with Pixso.
	</desc>
	<defs>
		<clipPath id="clip2_33">
			<rect id="123123123-2" width="832.000000" height="277.000000" fill="white" fill-opacity="0"/>
		</clipPath>
	</defs>
	<g clip-path="url(#clip2_33)">
		<rect id="фрейм 1" width="779.059326" height="244.000000" transform="translate(41.000000 17.000000)" fill="#FFFFFF" fill-opacity="0"/>
		<path id="COM FORUM" d="M416.15 92.23L392.43 92.23Q392.56 93.31 392.56 94.79Q392.56 101.62 389.52 103.91Q386.51 106.17 377.68 106.17Q367.9 106.17 364.95 102.96Q362.01 99.73 362.01 89.16Q362.01 66.62 363.35 62.76Q363.94 60.86 365.17 59.58Q366.13 58.59 367.47 57.98Q370.58 56.57 376.86 56.57Q383.43 56.57 386.44 57.39Q388.99 58.06 390.25 59.7Q390.48 60 390.66 60.34Q391.74 62.2 392.01 68.65L415.72 68.65Q415.59 59.39 415.07 55.53Q413.87 47.27 409.14 42.58Q406.88 40.34 403.82 38.91Q399.92 37.14 395.41 36.55Q390.93 35.93 381.01 35.93Q365.08 35.93 358.11 37.63Q355.73 38.2 353.54 39.19Q349.31 41.09 345.78 44.54Q343.58 46.68 342.01 49.21Q340.24 52.05 339.27 55.4Q337.47 61.68 337.47 73.32Q337.47 98.12 338.94 105.09Q340.41 112.29 344.58 117.19Q348.01 121.22 353.27 123.71Q354.67 124.34 356.11 124.82Q358.98 125.78 362.04 126.13Q366.68 126.65 379.02 126.65Q391.74 126.65 395.77 125.86Q401.76 124.75 406.38 121.62Q407.33 120.97 408.23 120.24Q412.76 116.47 414.35 111.71Q414.4 111.56 414.45 111.4Q415.99 106.43 416.15 94.92L416.15 92.23ZM495.04 39.04Q487.94 35.93 471.46 35.93Q455.23 35.93 448 38.35Q441.29 40.77 436.81 45.12Q433.48 48.36 431.81 52.29Q431.24 53.65 430.86 55.1Q428.44 63.41 428.44 86.05Q428.44 97.99 429.39 103.23Q431.01 111.17 435.62 116.54Q438.25 119.61 441.85 121.84Q449.47 126.65 468.51 126.65Q485 126.65 493.51 123.77Q499.36 121.79 503.27 117.87Q505.05 116.1 506.43 113.92Q506.62 113.62 506.81 113.32Q509.7 108.6 510.65 102.7Q511.66 96.39 511.66 81.76Q511.66 63.97 510.45 58.6Q508.9 50.86 504.4 45.72Q500.71 41.51 495.04 39.04ZM637.85 126L637.85 36.62L599.67 36.62L591.63 62.33Q587.73 74.53 586.26 80.55L583.05 92.76L582.11 92.76Q580.76 88.21 579.16 82.06Q575.96 71.2 573.01 62.2L564.7 36.62L527.31 36.62L527.31 126L550.9 126L550.9 99.2Q550.9 91.42 548.9 57.52L549.69 57.52Q551.84 64.36 556.13 77.74Q560.68 91.42 562.97 98.12L572.49 126L592.97 126L602.23 98.25Q608.51 79.51 615.21 57.52L616.03 57.52Q614.26 90.89 614.26 99.2L614.26 126L637.85 126ZM459.71 57.52Q462.89 56.44 470.8 56.44Q478.03 56.44 481.04 57.59Q482.07 57.98 482.93 58.62Q484.56 59.83 485.52 61.94Q487.13 65.83 487.13 80.29Q487.13 95.05 485.39 99.59Q484.13 102.94 481.72 104.36Q481.33 104.59 480.91 104.76Q477.9 106.04 470.51 106.04Q465.96 106.04 463.47 105.91Q461.91 105.83 460.44 105.39Q459.59 105.14 458.76 104.76Q456.57 103.75 455.62 102.54Q454.71 101.33 454.02 98.32Q453.37 95.31 453.23 91.97Q453.1 88.6 453.1 82.45Q453.1 65.57 454.97 61.81Q455.98 59.78 457.61 58.61Q458.56 57.92 459.71 57.52ZM481.38 159.04Q474.28 155.93 457.79 155.93Q441.56 155.93 434.33 158.35Q427.63 160.77 423.14 165.12Q419.81 168.36 418.15 172.29Q417.57 173.66 417.19 175.1Q414.77 183.41 414.77 206.05Q414.77 217.99 415.72 223.23Q417.34 231.17 421.96 236.54Q424.58 239.61 428.18 241.84Q435.8 246.65 454.84 246.65Q471.33 246.65 479.84 243.77Q485.69 241.79 489.61 237.87Q491.38 236.1 492.76 233.92Q492.96 233.62 493.14 233.32Q496.03 228.6 496.98 222.7Q498 216.39 498 201.77Q498 183.97 496.78 178.6Q495.24 170.86 490.73 165.72Q487.04 161.51 481.38 159.04ZM364.26 193.75L364.26 176.31L403.69 176.31L403.69 156.62L340.28 156.62L340.28 246L364.26 246L364.26 213.44L400.58 213.44L400.58 193.75L364.26 193.75ZM513.64 156.62L513.64 246L537.62 246L537.62 222.28L555.45 222.28Q561.08 222.28 563.27 224.89Q565.49 227.51 565.49 234.05L565.49 246L589.9 246L589.9 229.64Q589.9 221.07 585.94 216.85Q581.98 212.63 573.67 212.23L573.67 211.29Q581.85 209.29 584.53 207Q584.61 206.94 584.68 206.88Q587.9 204.33 589.21 199.38Q590.55 194.27 590.55 184.49Q590.55 175.36 588.75 170.23Q587.74 167.31 585.92 165.01Q584.53 163.25 582.67 161.85Q582.4 161.65 582.13 161.46Q578.42 158.83 573.61 157.76Q568.44 156.62 558.82 156.62L513.64 156.62ZM683.41 156.62L659.43 156.62L659.43 213.71Q659.43 221.62 656.95 223.91Q654.46 226.17 645.76 226.17Q635.42 226.17 632.54 224.17Q629.66 222.15 629.66 214.92L629.66 156.62L605.68 156.62L605.68 214.92Q605.68 220.67 605.94 223.36Q606.5 231.11 609.25 235.69Q612 240.24 617.88 243.05Q625.77 246.65 644.94 246.65Q656.19 246.65 661.75 245.8Q667.32 244.92 671.73 242.53Q675.54 240.4 678.05 237.24Q681.72 232.62 682.59 225.78Q683.41 218.52 683.41 213.02L683.41 156.62ZM812.41 246L812.41 156.62L774.24 156.62L766.19 182.33Q762.29 194.54 760.82 200.55L757.62 212.76L756.67 212.76Q755.33 208.21 753.72 202.06Q750.52 191.2 747.57 182.2L739.26 156.62L701.87 156.62L701.87 246L725.46 246L725.46 219.2Q725.46 211.42 723.46 177.52L724.25 177.52Q726.41 184.36 730.69 197.74Q735.24 211.42 737.53 218.12L747.05 246L767.53 246L776.79 218.25Q783.07 199.51 789.77 177.52L790.59 177.52Q788.83 210.89 788.83 219.2L788.83 246L812.41 246ZM446.04 177.52Q449.22 176.44 457.13 176.44Q464.36 176.44 467.37 177.59Q468.41 177.98 469.26 178.62Q470.89 179.83 471.86 181.94Q473.46 185.83 473.46 200.29Q473.46 215.05 471.73 219.59Q470.46 222.94 468.06 224.36Q467.66 224.59 467.24 224.76Q464.23 226.04 456.84 226.04Q452.29 226.04 449.81 225.91Q448.24 225.83 446.77 225.39Q445.92 225.14 445.1 224.76Q442.9 223.75 441.95 222.54Q441.04 221.33 440.35 218.32Q439.7 215.31 439.57 211.97Q439.44 208.6 439.44 202.45Q439.44 185.57 441.3 181.81Q442.31 179.78 443.94 178.61Q444.89 177.92 446.04 177.52ZM556.66 202.06L537.62 202.06L537.62 177.13L555.45 177.13Q562.03 177.13 564.02 179.16Q566.05 181.15 566.05 187.83Q566.05 196.83 564.28 199.44Q562.55 202.06 556.66 202.06Z" fill="#fff" fill-opacity="1.000000" fill-rule="evenodd"/>
		<g opacity="0.974000">
			<path id="path" d="M103.05 32.31C109.74 31.28 115.74 32.78 121.05 36.81C137.28 53.91 150.28 73.25 160.05 94.81C152.52 109.04 144.85 123.2 137.05 137.31C105.06 138.31 73.06 138.64 41.05 138.31C41.16 134.49 41.99 130.82 43.55 127.31C58.62 97.5 74.95 68.5 92.55 40.31C95.41 36.59 98.91 33.93 103.05 32.31Z" fill="#fff" fill-opacity="1.000000" fill-rule="evenodd"/>
		</g>
		<g opacity="0.974000">
			<path id="path" d="M122.05 33.31C152.22 32.14 182.55 31.97 213.05 32.81C224.3 35.01 233.14 40.84 239.55 50.31C251.52 71.26 263.02 92.42 274.05 113.81C274.07 116.11 273.07 117.78 271.05 118.81C255.72 118.97 240.39 119.14 225.05 119.31C208.97 119.46 192.97 118.96 177.05 117.81C164.19 92.23 149.69 67.73 133.55 44.31C129.85 40.43 126.02 36.77 122.05 33.31Z" fill="#fff" fill-opacity="1.000000" fill-rule="evenodd"/>
		</g>
		<g opacity="0.973000">
			<path id="path" d="M41.05 142.31C73.06 141.97 105.06 142.31 137.06 143.31C144.66 156.85 151.99 170.52 159.06 184.31C150.27 204.39 138.6 222.55 124.06 238.81C113.52 249.26 103.02 249.43 92.55 239.31C73.75 210.04 56.75 179.71 41.55 148.31C41.06 146.33 40.89 144.33 41.05 142.31Z" fill="#fff" fill-opacity="1.000000" fill-rule="evenodd"/>
		</g>
		<g opacity="0.974000">
			<path id="path" d="M177.05 160.31C208.63 159.98 240.13 160.31 271.55 161.31C272.85 163.17 273.19 165.17 272.55 167.31C260.22 189.64 247.89 211.97 235.55 234.31C231.49 241.59 225.33 245.75 217.05 246.81C185.05 247.64 153.05 247.47 121.05 246.31C130.89 237.63 139.05 227.63 145.55 216.31C156.32 197.77 166.82 179.11 177.05 160.31Z" fill="#fff" fill-opacity="1.000000" fill-rule="evenodd"/>
		</g>
	</g>
</svg>
